<svg width="78" height="78" viewBox="0 0 78 78" fill="none" xmlns="http://www.w3.org/2000/svg">
<path d="M68.8087 38.2562H68.7869C68.4913 38.2562 68.2065 38.1437 67.9906 37.9442L55.7392 26.5852C55.2639 26.1444 55.2367 25.4025 55.6757 24.9291C56.1165 24.4538 56.8584 24.4266 57.3318 24.8656L69.4581 36.1067C69.7737 36.3171 69.9805 36.6763 69.9805 37.0826C69.9805 37.732 69.4563 38.2562 68.8087 38.2562ZM45.2563 16.4434C44.9715 16.4434 44.6849 16.34 44.46 16.1314C40.9536 12.8826 38.4903 10.5971 38.4903 10.5971C38.1728 10.3032 38.0441 9.85877 38.1529 9.43975C38.2617 9.02073 38.5937 8.69784 39.0145 8.59626L39.234 8.54366C39.858 8.39491 40.4856 8.77584 40.6435 9.39621C41.5613 10.247 43.5403 12.0827 46.0545 14.4118C46.5297 14.8526 46.5569 15.5945 46.118 16.0679C45.8858 16.3164 45.572 16.4434 45.2563 16.4434Z" fill="#4A60A1"/>
<path d="M62.9297 69.4889C62.3238 69.4889 61.8105 69.0227 61.7615 68.4096C61.7416 68.1557 61.8032 67.9144 61.9248 67.7131V37.0754C61.9248 36.4278 62.449 35.9036 63.0966 35.9036C63.7442 35.9036 64.2684 36.4278 64.2684 37.0754V68.3044C64.2684 68.9157 63.7986 69.4236 63.1891 69.4726L63.0222 69.4853C62.9914 69.4871 62.9605 69.4889 62.9297 69.4889Z" fill="#4A60A1"/>
<path d="M57.6601 25.4298C57.0144 25.4298 56.4883 24.9074 56.4883 24.2598L56.4665 13.9257C55.9713 13.7806 55.6158 13.3198 55.6249 12.7793C55.6376 12.1317 56.1763 11.6111 56.8184 11.6292L57.6583 11.6438C58.2968 11.6546 58.8084 12.1752 58.8084 12.8138L58.8319 24.2544C58.8337 24.9019 58.3095 25.428 57.6619 25.4298C57.6619 25.4298 57.6619 25.4298 57.6601 25.4298Z" fill="#4A60A1"/>
<path d="M57.6056 11.2469C58.3912 11.2469 59.0274 11.8832 59.0274 12.6688V26.1844C59.0274 26.9706 58.3888 27.6063 57.6036 27.6063C56.8181 27.6062 56.1817 26.97 56.1817 26.1844V14.0907H50.4767V18.2108C50.4764 18.9963 49.8403 19.6327 49.0548 19.6327C48.2693 19.6327 47.6331 18.9963 47.6329 18.2108V12.6688C47.6329 11.8832 48.2691 11.2469 49.0548 11.2469H57.6056Z" fill="#1E2640" stroke="#1E2640" stroke-width="0.5"/>
<path d="M46.7003 41.8175C47.4859 41.8175 48.1222 42.4537 48.1222 43.2394V68.3146C48.1198 69.0974 47.4843 69.7355 46.6983 69.7355C45.9127 69.7354 45.2765 69.0992 45.2765 68.3136V44.6613H32.9503V68.3116C32.9503 69.0973 32.314 69.7335 31.5284 69.7335C30.7428 69.7335 30.1065 69.0973 30.1065 68.3116V43.2394C30.1065 42.4537 30.7428 41.8175 31.5284 41.8175H46.7003Z" fill="#1E2640" stroke="#1E2640" stroke-width="0.5"/>
<path d="M38.2584 8.5979C38.8021 8.18855 39.5707 8.21988 40.0787 8.69263L69.5787 36.0413C70.1552 36.5759 70.1888 37.4763 69.6559 38.051C69.1212 38.6274 68.2233 38.6601 67.6471 38.1282L67.6461 38.1272L39.1061 11.6672L10.151 38.134C9.87837 38.3825 9.53404 38.5061 9.19104 38.5061C8.85468 38.506 8.51795 38.3864 8.25159 38.1516L8.14124 38.0442C7.61049 37.4647 7.65291 36.5642 8.23108 36.0344H8.23206L38.153 8.68579L38.2584 8.5979Z" fill="#4A60A1" stroke="#4A60A1" stroke-width="0.5"/>
<path d="M14.8074 31.2802C15.593 31.2802 16.2292 31.9164 16.2292 32.702V66.8895H61.6833V33.7557C61.6834 32.9703 62.3198 32.3341 63.1052 32.3339C63.8908 32.3339 64.527 32.9701 64.5271 33.7557V68.3114L64.5203 68.4569C64.4491 69.1743 63.8439 69.7352 63.1072 69.7352H14.8074C14.0217 69.7352 13.3855 69.099 13.3855 68.3134V32.702C13.3855 31.9164 14.0217 31.2802 14.8074 31.2802Z" fill="#4A60A1" stroke="#4A60A1" stroke-width="0.5"/>
</svg>
